<svg width="18" height="18" viewBox="0 0 18 18" fill="none" xmlns="http://www.w3.org/2000/svg">
<path d="M16.4545 0.390962C16.8704 0.564721 17.2013 0.895488 17.375 1.31144L17.377 1.31628C17.4679 1.52234 17.5171 1.74438 17.5221 1.96952V15.8023C17.5229 16.0283 17.479 16.2528 17.3929 16.4618C17.3069 16.6706 17.1805 16.8606 17.0207 17.0204C16.8608 17.1803 16.6705 17.3072 16.4614 17.3933C16.2523 17.4794 16.028 17.5233 15.8019 17.5224L15.7999 17.5217C15.5738 17.5226 15.3494 17.4787 15.1404 17.3926C14.9315 17.3065 14.7415 17.1802 14.5818 17.0204C14.4219 16.8605 14.295 16.6702 14.2089 16.4611C14.1229 16.2521 14.0796 16.0282 14.0804 15.8023L14.0797 15.8016L14.0943 6.68311V6.09339L3.17553 17.0121C2.85436 17.3332 2.41915 17.5141 1.96502 17.5141C1.51072 17.5141 1.07437 17.3334 0.753134 17.0121C0.432071 16.6909 0.251806 16.2551 0.251806 15.8009C0.251831 15.3467 0.432037 14.9109 0.753134 14.5897L11.6719 3.671L11.0828 3.67169L1.96502 3.6855C1.50863 3.6855 1.07103 3.50411 0.7483 3.18141C0.425559 2.85867 0.24421 2.42111 0.24421 1.96469C0.244232 1.50829 0.425579 1.07069 0.7483 0.747968C0.908056 0.588251 1.09755 0.461537 1.30625 0.375079C1.51505 0.288594 1.73902 0.243878 1.96502 0.243878H15.8006V0.242497C16.0243 0.248009 16.2449 0.298557 16.4497 0.38889L16.4545 0.390962Z" fill="white" stroke="#171425" stroke-width="0.487596"/>
</svg>
