<svg width="19" height="21" viewBox="0 0 19 21" fill="none" xmlns="http://www.w3.org/2000/svg">
<g clip-path="url(#clip0_269_2226)">
<path d="M9.00737 5.63005H6.50259L6.61605 5.0246C6.78815 4.07804 7.72519 3.57682 9.32602 3.57682C9.57186 3.57682 9.76665 3.59387 9.89051 3.60998L10.6176 0.0615876C10.3586 0.0388475 9.81771 0 9.14069 0C4.04131 0 2.7336 3.08317 2.40833 4.92132L0 15.2027L4.6389 12.9988L5.88892 8.8904H8.38141L9.00831 5.631L9.00737 5.63005Z" fill="#FCFAF3"/>
<path d="M11.6684 15.4794C11.6684 15.3268 11.6977 14.9725 11.7516 14.7328L11.7544 14.7214L12.3302 12.8017H14.8019L15.7834 9.5414H12.9439L13.6871 5.73907L9.27232 7.74114L8.87518 9.5414H7.28854L6.45361 12.8017H8.11212L7.35567 15.4377C7.27152 15.8338 7.22802 16.1767 7.22802 16.4572C7.22802 20.2548 10.9573 20.6641 12.561 20.6641C12.9486 20.6641 13.4309 20.6196 13.6446 20.5978L14.3499 16.9414C14.2185 16.948 14.0341 16.9556 13.8271 16.9556C13.2928 16.9556 11.6684 16.9556 11.6684 15.4794Z" fill="#FCFAF3"/>
<path d="M16.8905 20.956C18.0556 20.956 19.0001 20.0095 19.0001 18.8421C19.0001 17.6746 18.0556 16.7282 16.8905 16.7282C15.7255 16.7282 14.781 17.6746 14.781 18.8421C14.781 20.0095 15.7255 20.956 16.8905 20.956Z" fill="#C6D7F9"/>
</g>
<defs>
<clipPath id="clip0_269_2226">
<rect width="19" height="20.9559" fill="white"/>
</clipPath>
</defs>
</svg>
