<svg width="66.36" height="66.36" viewBox="9.79 9.57 66.36 66.36" fill="none" xmlns="http://www.w3.org/2000/svg">
<rect x="9.79346" y="9.56812" width="66.3582" height="66.3582" rx="17.0968" fill="#021B30"/>
<path d="M20.4438 54.3617L32.0058 48.8796L34.8705 39.4789H40.6778L42.2672 31.2264H36.4599L36.6433 30.2484C37.1323 27.5587 40.4944 27.1919 42.5729 27.1919C43.5509 27.1919 44.1622 27.3141 44.1622 27.3141L45.9961 18.3892C45.9961 18.3892 44.4067 18.2058 42.145 18.2058C37.3768 18.2058 28.024 19.5507 26.1901 29.8816L20.4438 54.3617Z" fill="white"/>
<path d="M37.3549 56.6235C37.3549 63.8979 43.1623 66.7099 50.0699 66.7099C51.2925 66.7099 52.8819 66.5265 52.8819 66.5265C53.5742 62.9456 53.9623 60.938 54.6546 57.3571C54.6546 57.3571 53.9211 57.4182 53.0041 57.4182C50.6812 57.4182 48.3583 56.9291 48.3583 54.3617C48.3583 54.0561 48.4194 53.2614 48.5417 52.7112L49.7996 48.5261H56.4628L58.0521 40.2736H51.389L53.1618 31.2264L42.1386 36.216L41.2415 40.2736H36.9013L35.3119 48.5261H39.2853L37.6606 54.1783C37.4772 55.0341 37.3549 55.8899 37.3549 56.6235Z" fill="white"/>
<path d="M54.3791 66.4043H64.4044L66.0233 57.3571H55.998C55.6819 59.1236 55.5047 60.1141 55.1886 61.8807L54.3791 66.4043Z" fill="white"/>
<path d="M53.7783 69.7711L55.9444 55.2004L68.9215 54.6318V69.7711H53.7783Z" fill="#021B30"/>
<circle cx="60.1028" cy="62.1389" r="4.88941" fill="#C6D7F9"/>
<path d="M34.6668 39.7412L31.9365 48.7957L35.6603 49.1646L38.0792 39.7412H34.6668Z" fill="#021B30"/>
<path d="M57.804 39.7412L55.0737 48.7957L58.7975 49.1646L61.2164 39.7412H57.804Z" fill="#021B30"/>
</svg>
